<?xml version="1.0"?>
<svg xmlns="http://www.w3.org/2000/svg" xmlns:xlink="http://www.w3.org/1999/xlink" version="1.1" id="Capa_1" x="0px" y="0px" viewBox="0 0 512 512" style="enable-background:new 0 0 512 512;" xml:space="preserve" width="512px" height="512px" class=""><g><g>
	<g>
		<path d="M499.483,211.638l12.517-2.1V96H372v54.5h-30V96H0v113.538l12.517,2.101C34.236,215.284,50,233.941,50,256    s-15.764,40.716-37.483,44.362L0,302.462V416h342v-54.5h30V416h140V302.462l-12.517-2.101C477.764,296.716,462,278.059,462,256    C462,233.941,477.764,215.284,499.483,211.638z M372,331.5h-30v-60h30V331.5z M372,240.5h-30v-60h30V240.5z" data-original="#000000" class="active-path" data-old_color="#000000" fill="#008489"/>
	</g>
</g></g> </svg>
